<?xml version="1.0" encoding="UTF-8" standalone="no"?><!DOCTYPE svg PUBLIC "-//W3C//DTD SVG 1.1//EN" "http://www.w3.org/Graphics/SVG/1.1/DTD/svg11.dtd"><svg width="100%" height="100%" viewBox="0 0 413 453" version="1.1" xmlns="http://www.w3.org/2000/svg" xmlns:xlink="http://www.w3.org/1999/xlink" xml:space="preserve" xmlns:serif="http://www.serif.com/" style="fill-rule:evenodd;clip-rule:evenodd;stroke-linejoin:round;stroke-miterlimit:2;"><g id="Logo"><path d="M205.354,7.397c-1.61,-0.834 -3.518,-0.861 -5.151,-0.074c-0,-0 -35.092,15.987 -56.085,44.824c-9.722,13.355 -16.288,29.411 -15.899,47.713c0.234,9.189 6.175,23.616 15.048,39.114c19.31,33.727 51.741,73.745 51.741,73.745c1.887,2.299 4.705,3.634 7.68,3.639c2.975,0.005 5.796,-1.321 7.691,-3.614c0,-0 32.392,-39.822 50.869,-73.771c8.457,-15.54 13.824,-30.101 13.424,-39.675c-0.796,-17.662 -7.155,-33.129 -16.026,-46.064c-20.352,-29.678 -53.292,-45.837 -53.292,-45.837Zm-2.757,11.744c6.452,3.979 23.926,15.687 37.706,33.518c9.77,12.641 17.661,28.48 17.696,47.033c0.011,3.199 -1.195,7.073 -2.919,11.466c-3.43,8.737 -9.325,18.947 -15.963,29.324c-12.324,19.264 -27.444,38.882 -36.393,50.105c-9.01,-11.326 -24.344,-31.166 -37.109,-50.503c-10.623,-16.094 -19.942,-31.504 -20.511,-40.953c-0.949,-14.57 3.994,-27.505 11.247,-38.504c14.68,-22.257 38.403,-37.01 46.245,-41.486l0.001,0Z" style="fill:#ffbf99;"/><path d="M79.62,210.819c-10.342,-1.291 -28.817,-12.462 -41.423,-30.177c-7.815,-10.982 -13.212,-24.734 -12.141,-40.955c3.182,-0.892 6.2,-2.174 9.121,-3.783c6.4,-3.524 12.342,-8.699 19.204,-13.903c6.936,-5.26 14.927,-10.696 26.451,-13.387c6.221,-1.514 13.319,-0.674 20.495,1.052c12.453,2.996 25.021,8.419 34.463,11.374l3.946,-10.83c-11.013,-4.595 -26.089,-13.012 -40.688,-16.78c-7.449,-1.924 -14.792,-2.496 -21.546,-1.418c-8.742,1.444 -16.03,4.163 -22.429,7.396c-8.454,4.271 -15.228,9.525 -21.635,14.105c-5.44,3.888 -10.376,7.444 -16.894,7.806c-4.668,0.276 -8.505,3.783 -9.198,8.407c-3.109,25.1 4.883,45.827 17.512,61.142c16.831,20.411 41.18,31.019 53.855,31.442l0.907,-11.491Z" style="fill:#ffbf99;"/><path d="M270.099,119.682c-0.958,0.49 -1.455,0.925 -1.071,1.29c0.887,0.843 1.107,-0.055 1.071,-1.29c1.371,-0.709 3.688,-1.534 5.71,-2.442c8.633,-3.882 23.159,-7.729 39.946,-5.845c9.86,1.107 20.48,4.337 31.183,10.959c5.191,3.114 11.935,6.716 18.78,10.018c8.487,4.095 17.07,7.819 22.579,10.143c-0.424,1.898 -1.226,3.916 -2.227,6.036c-2.962,6.272 -7.732,13.02 -13.367,19.741c-14.884,17.753 -35.374,35.232 -46.963,42.711l5.83,9.943c15.1,-8.036 44.393,-29.086 61.613,-49.833c6.455,-7.777 11.093,-15.675 13.342,-22.757c1.614,-5.083 1.898,-9.917 1.129,-14.316c-0.635,-3.21 -2.829,-5.89 -5.85,-7.147c0,-0 -17.083,-7.265 -32.236,-14.435c-4.807,-2.274 -9.449,-4.462 -13.197,-6.517c-21.904,-11.572 -42.908,-12.674 -59.705,-9.448c-16.352,3.14 -28.578,10.055 -33.63,14.191c-2.467,2.02 -3.766,3.814 -4.143,4.826c-0.674,1.811 -0.645,3.312 -0.199,4.46l10.935,-3.645c0.13,0.466 0.435,2.089 0.47,3.357Z" style="fill:#ffbf99;"/><path d="M192.085,222.339c-6.354,-7.264 -34.065,-26.331 -70.689,-25.37c-21.217,0.557 -45.34,7.925 -69.947,27.964c-15.166,12.598 -25.377,28.09 -32.014,42.971c-12.06,27.042 -12.459,51.768 -12.459,51.768c-0.125,4.358 2.657,8.271 6.814,9.585c0,-0 34.258,10.34 67.399,9.461c17.088,-0.453 33.823,-3.894 45.98,-12.441c6.183,-4.37 13.672,-11.834 20.78,-19.937c13.361,-15.231 25.589,-32.461 25.589,-32.461l-9.212,-6.928c0,-0 -12.774,15.986 -26.495,30.017c-6.634,6.786 -13.479,13.099 -19.117,16.656c-10.124,6.424 -23.84,8.008 -37.631,7.812c-21.24,-0.303 -42.809,-5.461 -53.857,-8.534c1.105,-8.146 3.804,-22.131 10.281,-37.044c5.456,-12.561 13.477,-25.908 25.965,-36.801c20.296,-18.055 40.594,-25.292 58.71,-26.664c31.11,-2.355 55.697,11.892 61.44,17.771l8.463,-7.825Z" style="fill:#ffbf99;"/><path d="M266.315,315.487c3.479,3.223 7.011,6.255 10.561,9.001c12.448,9.595 31.15,13.173 50.569,13.322c35.882,0.274 74.077,-10.865 74.077,-10.865c3.971,-1.206 6.466,-5.132 5.872,-9.24c-3.645,-27.008 -16.27,-49.724 -31.252,-67.415c-22.865,-26.999 -51.442,-41.953 -61.825,-43.842c-16.35,-2.934 -37.381,-4.312 -59.845,-0.075c-18.196,3.431 -37.302,10.56 -55.659,23.363c-19.295,13.615 -35.733,36.381 -47.595,59.724c-15.517,30.538 -23.007,61.945 -21.212,74.25c0.028,0.202 0.063,0.402 0.104,0.601c3.753,17.336 14.257,34.961 26.755,49.423c15.723,18.194 34.536,31.223 45.837,33.687c1.467,0.336 2.999,0.259 4.425,-0.224c13.314,-4.672 29.141,-19.03 42.118,-35.664c13.027,-16.699 23.285,-35.449 26.004,-47.464c2.469,-10.92 -2.167,-30.419 -8.934,-48.582Zm-25.719,-27.628c-12.07,-14.483 -21.595,-27.587 -26.141,-31.673l7.59,-8.674c5.869,5 19.939,23.748 36.977,41.853c8.232,8.748 17.191,17.331 26.251,23.961c10.453,7.673 26.092,9.629 42.111,9.376c24.444,-0.384 49.898,-6.448 62.011,-9.741c-4.641,-20.233 -15.099,-37.257 -26.994,-50.834c-19.441,-22.189 -42.698,-35.35 -51.378,-36.799c-14.459,-2.45 -33.026,-3.464 -52.835,0.405c-15.681,3.063 -32.161,9.207 -47.964,20.306c-17.004,11.805 -31.191,31.932 -41.807,52.28c-8.331,15.967 -14.451,32.13 -17.73,44.944c-1.941,7.582 -3.014,13.784 -2.573,17.724c2.98,14.54 11.796,29.237 22.001,41.519c11.619,13.982 24.915,25.092 34.109,28.404c10.702,-4.481 22.759,-16.054 33.206,-28.819c11.868,-14.5 21.653,-30.681 24.316,-41.251c1.455,-5.777 0.116,-14.526 -2.27,-24.076c-4.181,-16.734 -11.95,-35.629 -17.873,-46.872c-0.346,-0.657 -0.683,-1.345 -1.007,-2.033Zm-2.5,-5.085c-0.584,-0.962 -1.086,-1.421 -1.481,-0.97c-0.71,0.809 0.297,0.995 1.481,0.97Z" style="fill:#ffbf99;"/></g></svg>